<svg width="32" height="32" viewBox="0 0 32 32" fill="none" xmlns="http://www.w3.org/2000/svg">
<circle cx="16" cy="16" r="16" fill="#8A3FFC"/>
<path fill-rule="evenodd" clip-rule="evenodd" d="M10.6 10.6C10.6 9.60588 11.4059 8.79999 12.4 8.79999H16.5272C17.0046 8.79999 17.4624 8.98963 17.8 9.3272L20.8728 12.4C21.2103 12.7376 21.4 13.1954 21.4 13.6728V21.4C21.4 22.3941 20.5941 23.2 19.6 23.2H12.4C11.4059 23.2 10.6 22.3941 10.6 21.4V10.6ZM12.4 16C12.4 15.5029 12.8029 15.1 13.3 15.1H18.7C19.197 15.1 19.6 15.5029 19.6 16C19.6 16.497 19.197 16.9 18.7 16.9H13.3C12.8029 16.9 12.4 16.497 12.4 16ZM13.3 18.7C12.8029 18.7 12.4 19.1029 12.4 19.6C12.4 20.097 12.8029 20.5 13.3 20.5H18.7C19.197 20.5 19.6 20.097 19.6 19.6C19.6 19.1029 19.197 18.7 18.7 18.7H13.3Z" fill="white"/>
</svg>
