<svg width="24" height="24" viewBox="0 0 24 24" fill="none" xmlns="http://www.w3.org/2000/svg">
<path d="M24 12C24 18.6274 18.6274 24 12 24C5.37262 24 0 18.6274 0 12C0 12.0028 12 0.00135937 12 0C18.6274 0 24 5.37262 24 12Z" fill="#0052B4"/>
<path d="M12.0001 0C11.9994 0 11.9987 4.6875e-05 11.998 4.6875e-05L12.0001 0Z" fill="white"/>
<path d="M11.9678 11.9999H11.9999C11.9999 11.989 11.9999 11.9786 11.9999 11.9678C11.9892 11.9785 11.9785 11.9892 11.9678 11.9999Z" fill="white"/>
<path d="M12 6.26111C12 4.14963 12 2.76602 12 0.00025177H11.998C5.3715 0.0013299 0 5.37344 0 12.0002H6.26086V8.47464L9.78642 12.0002H11.9679C11.9787 11.9895 11.9894 11.9788 12 11.9681C12 11.1596 12 10.4383 12 9.78672L8.47444 6.26111H12Z" fill="white"/>
<path d="M6.071 1.56528C4.19417 2.63398 2.63389 4.19426 1.56519 6.07109V12.0001H4.69564V4.69578V4.69573H12C12 3.7084 12 2.76781 12 1.56528H6.071Z" fill="#D80027"/>
<path d="M12.0001 10.5244L7.73666 6.26098H6.26099C6.26099 6.26094 6.26099 6.26098 6.26099 6.26098L12 12H12.0001C12.0001 12 12.0001 10.9826 12.0001 10.5244Z" fill="#D80027"/>
<path d="M7.23729 14.0871L7.89588 15.4642L9.38309 15.1204L8.71709 16.494L9.91305 17.4424L8.42398 17.778L8.42815 19.3045L7.23729 18.3495L6.04648 19.3045L6.05065 17.778L4.56152 17.4424L5.75754 16.494L5.09145 15.1204L6.57874 15.4642L7.23729 14.0871Z" fill="white"/>
<path d="M17.9665 16.6957L18.2958 17.3842L19.0394 17.2124L18.7064 17.8991L19.3044 18.3733L18.5599 18.5412L18.5619 19.3044L17.9665 18.8269L17.3711 19.3044L17.3732 18.5412L16.6287 18.3733L17.2266 17.8991L16.8936 17.2124L17.6372 17.3842L17.9665 16.6957Z" fill="white"/>
<path d="M14.9031 9.39139L15.2323 10.08L15.976 9.90804L15.643 10.5948L16.241 11.069L15.4964 11.2369L15.4985 12.0001L14.9031 11.5226L14.3077 12.0001L14.3097 11.2369L13.5652 11.069L14.1632 10.5948L13.8302 9.90804L14.5738 10.08L14.9031 9.39139Z" fill="white"/>
<path d="M17.9665 5.21744L18.2958 5.90603L19.0394 5.73414L18.7064 6.42091L19.3044 6.89509L18.5599 7.06295L18.5619 7.82617L17.9665 7.34866L17.3711 7.82617L17.3732 7.06295L16.6287 6.89509L17.2266 6.42091L16.8936 5.73414L17.6372 5.90603L17.9665 5.21744Z" fill="white"/>
<path d="M20.6424 8.34785L20.9716 9.03645L21.7152 8.86451L21.3822 9.55128L21.9802 10.0255L21.2356 10.1934L21.2377 10.9565L20.6424 10.4791L20.0469 10.9565L20.049 10.1934L19.3044 10.0255L19.9024 9.55128L19.5694 8.86451L20.313 9.03645L20.6424 8.34785Z" fill="white"/>
<path d="M18.729 12L18.988 12.7972H19.8262L19.1481 13.2899L19.4072 14.087L18.729 13.5943L18.0509 14.087L18.3099 13.2899L17.6318 12.7972H18.47L18.729 12Z" fill="white"/>
</svg>
