<svg width="24" height="24" viewBox="0 0 24 24" fill="none" xmlns="http://www.w3.org/2000/svg">
<path d="M12 24C18.6274 24 24 18.6274 24 12C24 5.37258 18.6274 0 12 0C5.37258 0 0 5.37258 0 12C0 18.6274 5.37258 24 12 24Z" fill="#05AB41"/>
<path d="M12.0002 4.69569L21.9132 12L12.0002 19.3044L2.08716 12L12.0002 4.69569Z" fill="#FFDA44"/>
<path d="M12.0001 16.1739C14.3052 16.1739 16.174 14.3052 16.174 12C16.174 9.69483 14.3052 7.82611 12.0001 7.82611C9.69489 7.82611 7.82617 9.69483 7.82617 12C7.82617 14.3052 9.69489 16.1739 12.0001 16.1739Z" fill="white"/>
<path d="M9.91324 11.7392C9.18743 11.7392 8.48698 11.8496 7.82764 12.0545C7.85684 14.3345 9.71328 16.174 12.0002 16.174C13.4143 16.174 14.6633 15.4701 15.4183 14.3943C14.1266 12.7772 12.139 11.7392 9.91324 11.7392Z" fill="#0052B4"/>
<path d="M16.0969 12.7997C16.1471 12.5408 16.1743 12.2736 16.1743 12C16.1743 9.69478 14.3056 7.82611 12.0004 7.82611C10.2804 7.82611 8.80379 8.86678 8.16479 10.3526C8.72964 10.2356 9.31445 10.1739 9.91347 10.1739C12.3377 10.1739 14.5308 11.1816 16.0969 12.7997Z" fill="#0052B4"/>
</svg>
