<svg width="24" height="24" viewBox="0 0 24 24" fill="none" xmlns="http://www.w3.org/2000/svg">
<path d="M12 24C18.6274 24 24 18.6274 24 12C24 5.37258 18.6274 0 12 0C5.37258 0 0 5.37258 0 12C0 18.6274 5.37258 24 12 24Z" fill="white"/>
<path d="M15.375 14.4514L18.75 12.7847L17.0626 11.9514V10.2847L13.6875 11.9514L14.875 8.61803H13.6875L12 6.11804L10.3125 8.61803H9.12496L10.3125 11.9514L6.93744 10.2847V11.9514L5.25 12.7847L8.62496 14.4514L7.78124 16.1181H11.1563V18.618H12.8437V16.1181H16.2188L15.375 14.4514Z" fill="#D80027"/>
<path fill-rule="evenodd" clip-rule="evenodd" d="M4.5 21.4861V2.75C1.75661 4.94918 0 8.32848 0 12.1181C0 15.9076 1.75661 19.2869 4.5 21.4861Z" fill="#D80027"/>
<path fill-rule="evenodd" clip-rule="evenodd" d="M19.5 21.4861V2.75C22.2434 4.94918 24 8.32848 24 12.1181C24 15.9076 22.2434 19.2869 19.5 21.4861Z" fill="#D80027"/>
</svg>
