<svg width="24" height="24" viewBox="0 0 24 24" fill="none" xmlns="http://www.w3.org/2000/svg">
<path d="M12 24C18.6274 24 24 18.6274 24 12C24 5.37258 18.6274 0 12 0C5.37258 0 0 5.37258 0 12C0 18.6274 5.37258 24 12 24Z" fill="#F0F0F0"/>
<path d="M24 11.9999C24 18.6273 18.6274 23.9999 12 23.9999C5.37262 23.9999 0 18.6273 0 11.9999C0 5.37257 12 11.9999 12 11.9999C12 11.9999 21.0825 11.9999 24 11.9999Z" fill="#D80027"/>
<path d="M0 12C0 5.37262 5.37262 0 12 0C12 4.56352 12 12 12 12C12 12 4.17389 12 0 12Z" fill="#0052B4"/>
<path d="M7.14337 4.17395L7.92042 6.56542H10.4349L8.40065 8.04339L9.17765 10.4349L7.14337 8.95684L5.10909 10.4349L5.88609 8.04339L3.85181 6.56542H6.36632L7.14337 4.17395Z" fill="#F0F0F0"/>
</svg>
