<svg width="41" height="40" viewBox="0 0 41 40" fill="none" xmlns="http://www.w3.org/2000/svg">
<path d="M10.7496 5.2472L14.3357 16.2426L36.511 18.853L30.1564 5.08899L10.7496 5.2472Z" fill="url(#paint0_linear)"/>
<path d="M30.7364 4.66713L9.51025 4.08704L13.8346 16.9282L37.8293 19.2222L30.7364 4.66713ZM11.4878 5.95915L30.0508 6.38104L35.4826 18.0884L14.942 15.8207L11.4878 5.95915Z" fill="#C36700"/>
<path d="M9.51025 4.11338L13.1227 0.0527357H15.8385L16.4186 0.659196H18.7654L20.1629 0H23.7225L24.6454 0.60646H28.8906L29.418 0.210943L32.6612 0.23731L30.7364 4.66711L9.51025 4.11338Z" fill="#FFF035"/>
<path d="M32.6613 0.237305L35.1134 4.6671L33.9005 6.82926L37.803 15.4252L39.1214 13.5267L40.3079 15.9789L37.803 19.2485L30.7364 4.6671L32.6613 0.237305Z" fill="#EA9300"/>
<path d="M34.7178 5.43176L38.8576 13.9222L37.8029 15.4252L33.9005 6.82926L34.7178 5.43176Z" fill="#BF3E00"/>
<path d="M15.8385 0.0527357L14.6783 2.2149H18.7918L20.1629 0L18.7654 0.659196H16.4186L15.8385 0.0527357Z" fill="#BF3E00"/>
<path d="M23.7226 0L23.9599 2.58405L28.0733 2.84773L29.418 0.210943L28.337 0.60646H24.6455L23.7226 0Z" fill="#BF3E00"/>
<path d="M13.8082 16.9545L2.07452 21.6744L27.0712 26.8952L37.8029 19.2222L13.8082 16.9545ZM5.63418 21.4371L13.9137 17.4819L35.4826 19.644L26.2275 25.3395L5.63418 21.4371Z" fill="#E08A00"/>
<path d="M1.57352 30.0593L0.571533 31.9314L5.00134 33.3553L6.71525 31.4832L1.57352 30.0593Z" fill="#E08A00"/>
<path d="M19.952 35.1483L21.9823 38.2861L27.6514 40L27.0713 37.1523L19.952 35.1483Z" fill="#E08A00"/>
<path d="M27.6513 40L30.3672 37.1523L30.7364 33.9354L27.0712 37.1523L27.6513 40Z" fill="#A35100"/>
<path d="M37.8029 27.6862L38.884 29.4001L35.878 31.9314L35.1133 30.0593L37.8029 27.6862Z" fill="#A35100"/>
<path d="M13.6235 17.2973L11.6195 18.1147L10.3275 17.3764L11.5932 16.4008L13.7553 16.0316L14.8628 16.6644L13.6235 17.2973Z" fill="#7CFFF9"/>
<path d="M13.6236 17.2973L14.3355 18.6684L11.3823 19.5386L11.6196 18.1147L13.6236 17.2973Z" fill="#00A5EC"/>
<path d="M11.6196 18.1147L10.3275 17.3764L9.66833 18.5366L11.3822 19.5386L11.6196 18.1147Z" fill="#00DBFF"/>
<path d="M14.8628 16.6644L15.8121 17.2182L14.3355 18.6684L13.6235 17.2973L14.8628 16.6644Z" fill="#00DCFF"/>
<path d="M14.3355 18.6685L13.149 21.8326L11.3823 19.5386L14.3355 18.6685Z" fill="#1070C4"/>
<path d="M15.8121 17.2182L13.1489 21.8326L14.3355 18.6684L15.8121 17.2182Z" fill="#2181E5"/>
<path d="M9.66833 18.5366L13.1489 21.8325L11.3822 19.5385L9.66833 18.5366Z" fill="#00AFFF"/>
<path d="M14.8628 16.6644L10.3275 17.3764L11.5932 16.4008L13.7553 16.0316L14.8628 16.6644Z" fill="#B6FFF9"/>
<path d="M29.9455 19.6967L27.8888 20.3559L26.6495 19.5122L27.9679 18.642L30.1564 18.4311L31.2111 19.143L29.9455 19.6967Z" fill="#7CFFF9"/>
<path d="M29.9454 19.6967L30.5255 21.0942L27.5459 21.7534L27.8887 20.3559L29.9454 19.6967Z" fill="#00A5EC"/>
<path d="M27.8887 20.3559L26.6494 19.5121L25.8848 20.6196L27.546 21.7534L27.8887 20.3559Z" fill="#00DBFF"/>
<path d="M31.2112 19.143L32.1077 19.7495L30.5256 21.0942L29.9455 19.6967L31.2112 19.143Z" fill="#00DCFF"/>
<path d="M30.5255 21.0942L29.128 24.1793L27.5459 21.7534L30.5255 21.0942Z" fill="#1070C4"/>
<path d="M32.1078 19.7495L29.1282 24.1793L30.5257 21.0943L32.1078 19.7495Z" fill="#2181E5"/>
<path d="M25.8848 20.6196L29.128 24.1792L27.546 21.7534L25.8848 20.6196Z" fill="#00AFFF"/>
<path d="M31.2111 19.143L26.6495 19.5122L27.9679 18.642L30.1564 18.4311L31.2111 19.143Z" fill="#B6FFF9"/>
<path d="M33.6898 19.4595L31.1849 18.9585L30.4202 17.3764L32.2923 17.2709L34.6391 18.2993L35.2983 19.644L33.6898 19.4595Z" fill="#7CFFF9"/>
<path d="M33.6899 19.4595L33.4789 21.2261L30.0511 20.1978L31.1849 18.9585L33.6899 19.4595Z" fill="#00A5EC"/>
<path d="M31.1848 18.9591L30.4201 17.3771L28.9962 18.089L30.0509 20.1984L31.1848 18.9591Z" fill="#00DBFF"/>
<path d="M35.2982 19.644L35.8783 20.7779L33.4788 21.2261L33.6898 19.4595L35.2982 19.644Z" fill="#00DCFF"/>
<path d="M33.4789 21.2261L30.262 23.5728L30.0511 20.1978L33.4789 21.2261Z" fill="#1070C4"/>
<path d="M35.8784 20.7778L30.2621 23.5728L33.4789 21.2261L35.8784 20.7778Z" fill="#2181E5"/>
<path d="M28.9963 18.0883L30.262 23.5728L30.0511 20.1977L28.9963 18.0883Z" fill="#00AFFF"/>
<path d="M35.2983 19.644L30.4202 17.3764L32.2923 17.2709L34.6391 18.2993L35.2983 19.644Z" fill="#B6FFF9"/>
<path d="M6.89986 19.3804L9.00928 17.9829L9.27296 16.1371L7.55905 16.6645L5.7133 18.563L5.50238 20.1451L6.89986 19.3804Z" fill="#7CFFF9"/>
<path d="M6.89984 19.3804L7.58543 21.1207L10.3804 18.8267L9.00927 17.9829L6.89984 19.3804Z" fill="#00A5EC"/>
<path d="M9.00916 17.9829L9.27283 16.1371L10.7495 16.3481L10.3803 18.8267L9.00916 17.9829Z" fill="#00DBFF"/>
<path d="M5.50234 20.145L5.29138 21.5162L7.5854 21.1206L6.89981 19.3804L5.50234 20.145Z" fill="#00DCFF"/>
<path d="M7.58545 21.1207L11.1451 22.3599L10.3804 18.8267L7.58545 21.1207Z" fill="#105BC4"/>
<path d="M5.29138 21.5162L11.1451 22.36L7.5854 21.1207L5.29138 21.5162Z" fill="#2181E5"/>
<path d="M10.7496 16.3481L11.1451 22.3599L10.3804 18.8267L10.7496 16.3481Z" fill="#00AFFF"/>
<path d="M5.50238 20.1451L9.27296 16.1371L7.55905 16.6645L5.7133 18.563L5.50238 20.1451Z" fill="#B6FFF9"/>
<path d="M18.6862 17.0864L16.234 16.5854L15.2848 14.9506L17.0778 14.8187L19.5036 15.8998L20.2947 17.2709L18.6862 17.0864Z" fill="#7CFFF9"/>
<path d="M18.6864 17.0864L18.7127 18.9585L15.2585 17.8774L16.2341 16.5854L18.6864 17.0864Z" fill="#00A5EC"/>
<path d="M16.2341 16.5862L15.2848 14.9514L13.9928 15.6897L15.2585 17.8782L16.2341 16.5862Z" fill="#00DBFF"/>
<path d="M20.2947 17.2709L20.9803 18.4575L18.7126 18.9585L18.6863 17.0864L20.2947 17.2709Z" fill="#00DCFF"/>
<path d="M18.7127 18.9585L15.865 21.4107L15.2585 17.8774L18.7127 18.9585Z" fill="#1070C4"/>
<path d="M20.9802 18.4575L15.8649 21.4107L18.7126 18.9584L20.9802 18.4575Z" fill="#2181E5"/>
<path d="M13.9928 15.6888L15.8649 21.4107L15.2585 17.8774L13.9928 15.6888Z" fill="#00AFFF"/>
<path d="M20.2947 17.2709L15.2848 14.9506L17.0778 14.8187L19.5036 15.8998L20.2947 17.2709Z" fill="#B6FFF9"/>
<path d="M22.9316 18.1411L20.5058 18.8267L18.8973 17.7983L20.4267 16.8491L23.0635 16.6909L24.4082 17.5346L22.9316 18.1411Z" fill="#7CFFF9"/>
<path d="M22.9317 18.1411L23.8018 19.7496L20.2422 20.4087L20.5059 18.8267L22.9317 18.1411Z" fill="#00A5EC"/>
<path d="M20.5057 18.8267L18.8972 17.7983L18.1062 19.064L20.242 20.4088L20.5057 18.8267Z" fill="#00DBFF"/>
<path d="M24.4082 17.5346L25.5947 18.2729L23.8017 19.7495L22.9316 18.1411L24.4082 17.5346Z" fill="#00DCFF"/>
<path d="M23.8018 19.7495L22.4307 23.2564L20.2422 20.4087L23.8018 19.7495Z" fill="#1070C4"/>
<path d="M25.5947 18.2729L22.4305 23.2565L23.8017 19.7495L25.5947 18.2729Z" fill="#2181E5"/>
<path d="M18.1062 19.064L22.4305 23.2564L20.242 20.4087L18.1062 19.064Z" fill="#00AFFF"/>
<path d="M24.4082 17.5346L18.8973 17.7983L20.4267 16.8491L23.0635 16.6909L24.4082 17.5346Z" fill="#B6FFF9"/>
<path d="M27.5459 17.6928L25.1201 18.3784L23.5116 17.3764L25.0409 16.4272L27.6777 16.2426L29.0225 17.1128L27.5459 17.6928Z" fill="#7CFFF9"/>
<path d="M27.546 17.6928L28.4161 19.3276L24.8564 19.9868L25.1201 18.3784L27.546 17.6928Z" fill="#00A5EC"/>
<path d="M25.12 18.3784L23.5115 17.3764L22.7205 18.6421L24.8563 19.9868L25.12 18.3784Z" fill="#00DBFF"/>
<path d="M29.0225 17.1127L30.209 17.851L28.416 19.3276L27.5459 17.6928L29.0225 17.1127Z" fill="#00DCFF"/>
<path d="M28.4161 19.3276L27.045 22.8346L24.8564 19.9868L28.4161 19.3276Z" fill="#1070C4"/>
<path d="M30.2089 17.851L27.0448 22.8345L28.4159 19.3276L30.2089 17.851Z" fill="#2181E5"/>
<path d="M22.7205 18.642L27.0448 22.8345L24.8563 19.9868L22.7205 18.642Z" fill="#00AFFF"/>
<path d="M29.0225 17.1128L23.5116 17.3764L25.0409 16.4272L27.6777 16.2426L29.0225 17.1128Z" fill="#B6FFF9"/>
<path d="M21.1384 22.0171L23.4851 22.9136L25.1463 22.0435L23.7225 20.9624L21.112 20.5669L19.6882 21.3052L21.1384 22.0171Z" fill="#7CFFF9"/>
<path d="M21.1385 22.0172L20.1102 23.5729L23.5907 24.5485L23.4852 22.9137L21.1385 22.0172Z" fill="#00A5EC"/>
<path d="M23.4852 22.9137L25.1464 22.0435L25.832 23.3883L23.5907 24.5485L23.4852 22.9137Z" fill="#00DBFF"/>
<path d="M19.6884 21.3052L18.4491 21.938L20.1103 23.5728L21.1386 22.0171L19.6884 21.3052Z" fill="#00DCFF"/>
<path d="M20.1102 23.5728L21.1649 27.1852L23.5907 24.5484L20.1102 23.5728Z" fill="#1070C4"/>
<path d="M18.4491 21.938L21.165 27.1852L20.1103 23.5729L18.4491 21.938Z" fill="#2181E5"/>
<path d="M25.832 23.3882L21.1649 27.1852L23.5907 24.5484L25.832 23.3882Z" fill="#00AFFF"/>
<path d="M19.6882 21.3052L25.1463 22.0435L23.7225 20.9624L21.112 20.5669L19.6882 21.3052Z" fill="#B6FFF9"/>
<path d="M14.5465 21.147L14.0191 23.1246L12.1997 23.7574L10.9077 22.439L11.6987 19.9077L13.6236 19.2485L14.5465 21.147Z" fill="#B6FFF9"/>
<path d="M14.5465 21.147H15.7595L15.153 23.9948L14.0192 23.1246L14.5465 21.147Z" fill="#00A5EC"/>
<path d="M15.153 23.9948L12.1471 24.7858L12.1998 23.7575L14.0192 23.1246L15.153 23.9948Z" fill="#00DCFF"/>
<path d="M10.9077 22.439L12.147 24.7858L12.1997 23.7574L10.9077 22.439Z" fill="#00A5EC"/>
<path d="M13.6236 19.2485L14.5465 18.9585L15.7594 21.147H14.5465L13.6236 19.2485Z" fill="#00DBFF"/>
<path d="M15.153 23.9948L16.5505 22.7818L15.7595 21.147L15.153 23.9948Z" fill="#105BC4"/>
<path d="M14.0191 23.1246L11.6987 19.9077L10.9077 22.439L12.1997 23.7574L14.0191 23.1246Z" fill="#7CFFF9"/>
<path d="M16.2868 21.8326L18.1062 23.6783L20.5057 23.2565L21.0858 20.9888L18.6335 18.6948L16.0759 19.1958L16.2868 21.8326Z" fill="#B6FFF9"/>
<path d="M16.2867 21.8326L14.9156 22.6236L17.3942 25.3659L18.1061 23.6783L16.2867 21.8326Z" fill="#00A5EC"/>
<path d="M17.3942 25.3659L21.2176 24.3376L20.5056 23.2565L18.1061 23.6784L17.3942 25.3659Z" fill="#00DCFF"/>
<path d="M21.0858 20.9888L21.2176 24.3375L20.5057 23.2565L21.0858 20.9888Z" fill="#00A5EC"/>
<path d="M16.0759 19.1958L14.8893 19.4595L14.9157 22.6236L16.2869 21.8326L16.0759 19.1958Z" fill="#00DBFF"/>
<path d="M17.3942 25.3659L15.1265 24.9177L14.9156 22.6237L17.3942 25.3659Z" fill="#105BC4"/>
<path d="M18.1061 23.6783L18.6334 18.6948L21.0857 20.9888L20.5056 23.2565L18.1061 23.6783Z" fill="#7CFFF9"/>
<path d="M24.6454 22.6236L26.4648 24.443L28.8643 24.0211L29.4708 21.7535L26.9922 19.4595L24.4609 19.9868L24.6454 22.6236Z" fill="#B6FFF9"/>
<path d="M24.6454 22.6237L23.3006 23.3883L25.7792 26.1306L26.4647 24.443L24.6454 22.6237Z" fill="#00A5EC"/>
<path d="M25.7793 26.1305L29.6026 25.1022L28.8643 24.0211L26.4649 24.443L25.7793 26.1305Z" fill="#00DCFF"/>
<path d="M29.4707 21.7535L29.6026 25.1022L28.8643 24.0211L29.4707 21.7535Z" fill="#00A5EC"/>
<path d="M24.4607 19.9868L23.2742 20.2241L23.3005 23.3883L24.6453 22.6236L24.4607 19.9868Z" fill="#00DBFF"/>
<path d="M25.7792 26.1306L23.4852 25.6823L23.3006 23.3883L25.7792 26.1306Z" fill="#105BC4"/>
<path d="M26.4647 24.443L26.992 19.4595L29.4706 21.7535L28.8641 24.0211L26.4647 24.443Z" fill="#7CFFF9"/>
<path d="M35.8782 31.9314L33.7687 31.2459L35.1135 30.0593L35.8782 31.9314Z" fill="#E08A00"/>
<path d="M20.1628 0L18.7653 0.659196L18.7917 2.2149L20.1628 0Z" fill="#8B3000"/>
<path d="M15.8385 0.0527649L16.4186 0.659225L14.6783 2.21493L15.8385 0.0527649Z" fill="#8B3000"/>
<path d="M23.7226 0L23.9599 2.58405L24.6455 0.60646L23.7226 0Z" fill="#8B3000"/>
<path d="M29.4179 0.210938L28.3368 0.606455L28.0731 2.84772L29.4179 0.210938Z" fill="#8B3000"/>
<path d="M21.613 22.5708L24.0388 23.6256L25.9637 23.0191L24.6716 21.5952L22.0085 20.6724L20.2155 20.9624L21.613 22.5708Z" fill="#FF8EDC"/>
<path d="M21.6128 22.5709L20.3472 23.6519L23.8805 25.0494L24.0387 23.6256L21.6128 22.5709Z" fill="#BB2876"/>
<path d="M24.0387 23.6256L25.9636 23.0191L26.4382 24.5484L23.8542 25.3395L24.0387 23.6256Z" fill="#FF62AA"/>
<path d="M20.2153 20.9624L18.9497 21.6216L20.3472 23.6519L21.6129 22.5708L20.2153 20.9624Z" fill="#FF62AA"/>
<path d="M20.3472 23.6519L20.7691 27.6598L23.8805 25.0494L20.3472 23.6519Z" fill="#722876"/>
<path d="M18.9497 21.6216L20.7691 27.6598L20.3472 23.6519L18.9497 21.6216Z" fill="#BA4EA2"/>
<path d="M26.4382 24.5485L20.7692 27.6599L23.8806 25.0495L26.4382 24.5485Z" fill="#BA4EA2"/>
<path d="M20.2155 20.9624L25.9637 23.0191L24.6716 21.5952L22.0085 20.6724L20.2155 20.9624Z" fill="#FFC3DC"/>
<path d="M9.32579 20.6988L11.5407 20.3824L12.6481 19.1167L11.1188 18.6685L8.79844 19.1694L7.63824 20.1451L9.32579 20.6988Z" fill="#FF8EDC"/>
<path d="M9.32587 20.6988L8.90399 22.0172L12.0417 21.4635L11.5408 20.3824L9.32587 20.6988Z" fill="#BB2876"/>
<path d="M11.5408 20.3824L12.6483 19.1167L13.6503 20.0132L12.1473 21.7007L11.5408 20.3824Z" fill="#FF62AA"/>
<path d="M7.63833 20.1451L7.00549 21.1734L8.904 22.0172L9.32588 20.6988L7.63833 20.1451Z" fill="#FF62AA"/>
<path d="M8.90399 22.0172L10.9607 24.6803L12.0417 21.4634L8.90399 22.0172Z" fill="#722876"/>
<path d="M7.00549 21.1734L10.9607 24.6803L8.904 22.0172L7.00549 21.1734Z" fill="#BA4EA2"/>
<path d="M13.6502 20.0132L10.9607 24.6803L12.0418 21.4634L13.6502 20.0132Z" fill="#BA4EA2"/>
<path d="M7.63824 20.1451L12.6481 19.1167L11.1188 18.6685L8.79844 19.1694L7.63824 20.1451Z" fill="#FFC3DC"/>
<path d="M29.3915 22.0962L31.2899 21.3579L32.0282 20.0132L30.578 19.9341L28.6004 20.857L27.783 21.9644L29.3915 22.0962Z" fill="#FF8EDC"/>
<path d="M29.3914 22.0963L29.2859 23.3619L31.9755 22.2281L31.2899 21.358L29.3914 22.0963Z" fill="#BB2876"/>
<path d="M31.29 21.3579L32.0284 20.0132L33.1094 20.5933L32.1075 22.4127L31.29 21.3579Z" fill="#FF62AA"/>
<path d="M27.7831 21.9644L27.4403 22.9928L29.2861 23.3619L29.3915 22.0963L27.7831 21.9644Z" fill="#FF62AA"/>
<path d="M29.2859 23.3619L31.6591 25.3131L31.9755 22.2281L29.2859 23.3619Z" fill="#722876"/>
<path d="M27.4403 22.9927L31.6592 25.3131L29.2861 23.3619L27.4403 22.9927Z" fill="#BA4EA2"/>
<path d="M33.1093 20.5933L31.6591 25.3131L31.9756 22.2281L33.1093 20.5933Z" fill="#BA4EA2"/>
<path d="M27.783 21.9644L32.0282 20.0132L30.578 19.9341L28.6004 20.857L27.783 21.9644Z" fill="#FFC3DC"/>
<path d="M2.07452 21.6743L27.0712 26.8952L26.2275 25.3658L5.15955 21.3052L2.07452 21.6743Z" fill="#FFF035"/>
<path d="M2.07442 21.6744L27.0711 26.8952V37.1523L1.57343 30.0593L2.07442 21.6744Z" fill="#FEBC00"/>
<path d="M18.0533 29.8484C18.0533 27.7126 16.3394 25.6295 14.23 25.2077C12.1206 24.7858 10.4067 26.1833 10.4067 28.3191C10.4067 30.4549 12.1206 32.5379 14.23 32.9598C15.2056 33.1444 16.1285 32.9598 16.8141 32.4324C16.9459 32.327 16.9723 32.116 16.8404 31.9315C16.7086 31.7732 16.4976 31.7205 16.3394 31.7996C15.7593 32.2215 14.9947 32.3797 14.2037 32.2215C13.2808 32.0369 12.4634 31.4568 11.8833 30.6922L13.5181 28.3982V29.6111C13.5181 30.1912 13.7554 30.4285 13.94 30.5076C14.1245 30.5867 14.4146 30.6131 14.731 30.1912L15.6275 28.9255C15.6539 28.8992 15.6802 28.8464 15.7066 28.8201V29.5583C15.7066 30.1121 15.9176 30.5867 16.3131 30.8767C16.6559 31.1404 17.0777 31.1932 17.4205 31.0613C17.8688 30.9031 18.0797 30.4549 18.0533 29.8484ZM17.0778 30.4021C16.9459 30.4549 16.7877 30.4285 16.6558 30.3494C16.4976 30.2175 16.4186 30.0066 16.4186 29.7429V28.8992C16.4186 28.5036 16.2603 28.1609 15.9966 28.029C15.5484 27.7917 15.1792 28.2927 15.0738 28.4773L14.2564 29.6111V28.0026C14.2564 27.6335 14.1246 27.3962 13.9136 27.2907C13.7554 27.2116 13.5444 27.1852 13.3071 27.4753L11.4878 30.0066C11.2504 29.5056 11.1186 28.9519 11.1186 28.4509C11.1186 26.7106 12.5161 25.5504 14.2564 25.8932C15.9703 26.236 17.3942 27.9499 17.3942 29.6902C17.3942 30.0593 17.2887 30.2966 17.0778 30.4021Z" fill="#CC7700"/>
<path d="M27.0448 33.9354L21.6657 33.1443L27.0448 34.6209V33.9354Z" fill="#CC7700"/>
<path d="M1.86364 25.1285L8.21828 26.5524L1.83728 25.8405L1.86364 25.1285Z" fill="#CC7700"/>
<path d="M18.8972 27.1852L25.3573 28.1872C25.3573 28.1872 22.4832 28.7673 18.8972 27.1852Z" fill="#CC7700"/>
<path d="M26.2275 25.3659L35.4826 19.644L37.0119 19.8814L27.0712 26.8952L26.2275 25.3659Z" fill="#E08A00"/>
<path d="M27.0712 37.1522L37.803 27.6862V19.2485L27.0712 26.8951V37.1522Z" fill="#CC7700"/>
<path d="M27.0448 31.0086L31.7646 28.1872L27.0712 31.9314L27.0448 31.0086Z" fill="#FEBC00"/>
<path d="M37.8028 22.1754L34.2432 25.0758L37.8028 23.0191V22.1754Z" fill="#BF3E00"/>
<path d="M6.45148 33.118L5.84501 35.5438L4.18385 36.4403L4.10474 34.6473L5.26493 32.2742L6.6888 31.5095L6.45148 33.118Z" fill="#7CFFF9"/>
<path d="M6.45163 33.118L8.29738 33.1443L7.11082 36.5722L5.84515 35.5438L6.45163 33.118Z" fill="#00A5EC"/>
<path d="M5.84493 35.5438L4.18378 36.4403L4.86933 37.7587L7.1106 36.5722L5.84493 35.5438Z" fill="#00DBFF"/>
<path d="M6.68879 31.5095L7.90171 30.8767L8.29723 33.1443L6.45148 33.118L6.68879 31.5095Z" fill="#00DCFF"/>
<path d="M8.29721 33.1443L10.6703 36.0712L7.11066 36.5722L8.29721 33.1443Z" fill="#1070C4"/>
<path d="M7.90155 30.8767L10.6702 36.0712L8.29707 33.1443L7.90155 30.8767Z" fill="#2181E5"/>
<path d="M4.86945 37.7587L10.6704 36.0712L7.11071 36.5722L4.86945 37.7587Z" fill="#00AFFF"/>
<path d="M6.6888 31.5095L4.18385 36.4403L4.10474 34.6473L5.26493 32.2742L6.6888 31.5095Z" fill="#B6FFF9"/>
<path d="M10.5386 36.203L12.068 37.7323L14.0719 37.3632L14.5729 35.4647L12.5162 33.5399L10.3804 33.9881L10.5386 36.203Z" fill="#B6FFF9"/>
<path d="M10.5386 36.203L9.40472 36.8358L11.4878 39.1298L12.0679 37.7323L10.5386 36.203Z" fill="#00A5EC"/>
<path d="M11.4878 39.1298L14.6783 38.286L14.0719 37.3632L12.0679 37.7323L11.4878 39.1298Z" fill="#00DCFF"/>
<path d="M14.5727 35.4647L14.6782 38.2861L14.0717 37.3632L14.5727 35.4647Z" fill="#00A5EC"/>
<path d="M10.3803 33.9881L9.3783 34.199L9.40466 36.8358L10.5385 36.203L10.3803 33.9881Z" fill="#00DBFF"/>
<path d="M11.4878 39.1298L9.56296 38.787L9.40472 36.8358L11.4878 39.1298Z" fill="#105BC4"/>
<path d="M12.0679 37.7323L12.5162 33.5399L14.5729 35.4647L14.0719 37.3632L12.0679 37.7323Z" fill="#7CFFF9"/>
<path d="M33.5314 32.7752L34.797 35.6757L37.7239 36.2558L39.385 33.9354L37.6184 30.2439L34.4806 29.6902L33.5314 32.7752Z" fill="#FF8EDC"/>
<path d="M33.5314 32.7752L31.6592 33.0653L33.2677 37.2841L34.797 35.6757L33.5314 32.7752Z" fill="#BB2876"/>
<path d="M33.2678 37.2841L38.0667 37.8115L37.7239 36.2558L34.7971 35.6757L33.2678 37.2841Z" fill="#FF62AA"/>
<path d="M39.3852 33.9354L38.0668 37.8114L37.724 36.2557L39.3852 33.9354Z" fill="#BB2876"/>
<path d="M34.4806 29.6902L33.0304 29.4792L31.6592 33.0653L33.5314 32.7752L34.4806 29.6902Z" fill="#FF62AA"/>
<path d="M33.2677 37.2841L30.8419 35.7811L31.6593 33.0652L33.2677 37.2841Z" fill="#722876"/>
<path d="M34.7971 35.6757L37.6185 30.2439L39.3851 33.9354L37.7239 36.2558L34.7971 35.6757Z" fill="#FFC3DC"/>
<defs>
<linearGradient id="paint0_linear" x1="23.6309" y1="18.8646" x2="23.6309" y2="5.09305" gradientUnits="userSpaceOnUse">
<stop offset="0.4123" stop-color="#801100"/>
<stop offset="0.9192" stop-color="#360A16"/>
</linearGradient>
</defs>
</svg>
