<svg width="41" height="40" viewBox="0 0 41 40" fill="none" xmlns="http://www.w3.org/2000/svg">
<path d="M19.2064 11.9444L25.2699 12.1032L28.381 8.83333L24.2857 7.5L18.0318 8.64286L15.3969 11.4365L19.2064 11.9444Z" fill="#7CFFF9"/>
<path d="M19.2064 11.9445L18.0953 16.2619L26.7937 15.6905L25.2699 12.1032L19.2064 11.9445Z" fill="#00A5EC"/>
<path d="M25.2699 12.1032L28.381 8.83331L30.9842 11.3095L26.7937 15.6905L25.2699 12.1032Z" fill="#00CDFF"/>
<path d="M15.3969 11.4365L13.0795 13.8492L18.0953 16.2619L19.2065 11.9445L15.3969 11.4365Z" fill="#00DCFF"/>
<path d="M18.0953 16.2619L23.3652 23.627L26.7937 15.6905L18.0953 16.2619Z" fill="#1070C4"/>
<path d="M13.0795 13.8492L23.3652 23.627L18.0953 16.2619L13.0795 13.8492Z" fill="#2181E5"/>
<path d="M30.9842 11.3095L23.3651 23.627L26.7937 15.6905L30.9842 11.3095Z" fill="#00AFFF"/>
<path d="M15.3969 11.4365L28.381 8.83333L24.2857 7.5L18.0318 8.64286L15.3969 11.4365Z" fill="#B6FFF9"/>
<path d="M4.22228 19.8492L9.93656 14.7381V9.0238L5.01593 11.4048L0.285767 17.8809V22.7381L4.22228 19.8492Z" fill="#7CFFF9"/>
<path d="M4.22217 19.8492L6.98407 24.7698L14.4444 16.7064L9.93645 14.7381L4.22217 19.8492Z" fill="#00A5EC"/>
<path d="M9.9364 14.7381V9.0238H14.4443V16.7063L9.9364 14.7381Z" fill="#00DBFF"/>
<path d="M0.285767 22.7381V26.9603L6.98418 24.7698L4.22228 19.8492L0.285767 22.7381Z" fill="#00DCFF"/>
<path d="M6.98425 24.7699L18.1906 26.9603L14.4446 16.7064L6.98425 24.7699Z" fill="#105BC4"/>
<path d="M0.285767 26.9603H18.1905L6.98418 24.7698L0.285767 26.9603Z" fill="#2181E5"/>
<path d="M14.4445 9.0238L18.1905 26.9603L14.4445 16.7063V9.0238Z" fill="#00AFFF"/>
<path d="M0.285767 22.7381L9.93656 9.0238L5.01593 11.4048L0.285767 17.8809V22.7381Z" fill="#B6FFF9"/>
<path d="M4.22217 19.8492C4.53963 20.992 6.19042 24.0714 6.98407 24.7698C6.69836 23.0238 4.22217 19.8492 4.22217 19.8492Z" fill="#7CFFF9"/>
<path d="M9.9364 14.7381C11.0475 15.5952 13.6189 16.6746 14.4761 16.7064C13.6507 15.9762 9.9364 14.7381 9.9364 14.7381Z" fill="#7CFFF9"/>
<path d="M32.4445 16.8333L35.6826 22.2937L40.2858 23.2143L39.1747 18.8333L34.6667 13.9762L30.762 13.2143L32.4445 16.8333Z" fill="#7CFFF9"/>
<path d="M32.4444 16.8333L28.0317 18.2936L33.3651 25.627L35.6825 22.2936L32.4444 16.8333Z" fill="#00A5EC"/>
<path d="M35.6826 22.2936L40.2857 23.2143L39.5556 26.8651L33.3651 25.627L35.6826 22.2936Z" fill="#00DBFF"/>
<path d="M30.7619 13.2143L27.3651 12.5159L28.0318 18.2936L32.4445 16.8333L30.7619 13.2143Z" fill="#00DCFF"/>
<path d="M28.0317 18.2936L24.4762 27.0238L33.3651 25.627L28.0317 18.2936Z" fill="#1972D9"/>
<path d="M27.3651 12.5159L24.4762 27.0238L28.0317 18.2936L27.3651 12.5159Z" fill="#2181E5"/>
<path d="M39.5556 26.865L24.4762 27.0238L33.3651 25.627L39.5556 26.865Z" fill="#00AFFF"/>
<path d="M30.762 13.2143L40.2858 23.2143L39.1747 18.8333L34.6667 13.9762L30.762 13.2143Z" fill="#B6FFF9"/>
<path d="M32.4444 16.8333C31.4603 16.9286 28.6984 17.7539 28.0317 18.2619C29.4921 18.3254 32.4444 16.8333 32.4444 16.8333Z" fill="#7CFFF9"/>
<path d="M35.6826 22.2936C34.8254 23.0555 33.5238 24.9603 33.3651 25.627C34.0635 25.119 35.6826 22.2936 35.6826 22.2936Z" fill="#7CFFF9"/>
<path d="M22.7936 21.373L20.7302 27.2143L15.0476 28.7064L11.4921 24.3889L14.5079 16.8968L20.5397 15.4365L22.7936 21.373Z" fill="#B6FFF9"/>
<path d="M22.7936 21.373L26.5396 21.6905L23.9365 30.1667L20.7301 27.2143L22.7936 21.373Z" fill="#00A5EC"/>
<path d="M23.9366 30.1667L14.6033 31.8175L15.0477 28.7064L20.7303 27.2143L23.9366 30.1667Z" fill="#00DCFF"/>
<path d="M11.4921 24.3889L14.6032 31.8175L15.0476 28.7064L11.4921 24.3889Z" fill="#00A5EC"/>
<path d="M20.5397 15.4365L23.3651 14.8016L26.5397 21.6905L22.7936 21.373L20.5397 15.4365Z" fill="#00DBFF"/>
<path d="M23.9365 30.1667L28.4445 26.8968L26.5397 21.6905L23.9365 30.1667Z" fill="#105BC4"/>
<path d="M20.7302 27.2142L14.5079 16.8968L11.4921 24.3889L15.0476 28.7063L20.7302 27.2142Z" fill="#7CFFF9"/>
</svg>
