<svg width="32" height="32" viewBox="0 0 32 32" fill="none" xmlns="http://www.w3.org/2000/svg">
<circle cx="16" cy="16" r="16" fill="#3861FB"/>
<path d="M13.25 19.5C13.25 19.9142 12.9142 20.25 12.5 20.25C12.0858 20.25 11.75 19.9142 11.75 19.5C11.75 19.0858 12.0858 18.75 12.5 18.75C12.9142 18.75 13.25 19.0858 13.25 19.5Z" fill="white"/>
<path d="M12.5 9.75C17.8848 9.75 22.25 14.1152 22.25 19.5M12.5 14.25C15.3995 14.25 17.75 16.6005 17.75 19.5M13.25 19.5C13.25 19.9142 12.9142 20.25 12.5 20.25C12.0858 20.25 11.75 19.9142 11.75 19.5C11.75 19.0858 12.0858 18.75 12.5 18.75C12.9142 18.75 13.25 19.0858 13.25 19.5Z" stroke="white" stroke-width="2" stroke-linecap="round" stroke-linejoin="round"/>
</svg>
