<svg width="24" height="24" viewBox="0 0 24 24" fill="none" xmlns="http://www.w3.org/2000/svg">
<path d="M12 24C18.6274 24 24 18.6274 24 12C24 5.37258 18.6274 0 12 0C5.37258 0 0 5.37258 0 12C0 18.6274 5.37258 24 12 24Z" fill="#D80027"/>
<path d="M11.9145 12.0079C7.54762 10.1625 9.48404 4.47497 13.6607 4.76037C12.8157 5.19409 12.693 6.00528 13.1758 6.75509C13.7159 7.59492 13.1257 8.94724 12.3953 9.2756C11.1944 9.81674 10.955 11.257 11.9145 12.0079Z" fill="white"/>
<path d="M11.6791 7.90086L11.4336 8.28651L11.3446 7.83744L10.9006 7.72389L11.3006 7.49987L11.273 7.04364L11.6085 7.35461L12.033 7.18685L11.8417 7.60216L12.1322 7.95508L11.6791 7.90086Z" fill="#D80027"/>
<path d="M11.9399 11.9597C11.412 11.6886 10.9855 11.1239 10.8003 10.4488C10.5886 9.67444 10.7103 8.84177 11.1358 8.16561L11.0438 8.1073C10.6019 8.81006 10.4761 9.67341 10.696 10.4764C10.8924 11.1904 11.3271 11.7663 11.8898 12.0558L11.9399 11.9597Z" fill="#D80027"/>
<path d="M11.9197 12.0087C12.3258 7.28481 18.3325 7.36869 19.3513 11.4287C18.6772 10.7597 17.8691 10.8937 17.3044 11.5842C16.6722 12.3576 15.2043 12.2143 14.6652 11.621C13.7804 10.6472 12.336 10.863 11.9197 12.0087Z" fill="white"/>
<path d="M15.7523 10.5154L15.3093 10.4008L15.7083 10.1778L15.6807 9.72055L16.0162 10.0315L16.4417 9.86376L16.2504 10.2791L16.5409 10.632L16.0868 10.5778L15.8413 10.9634L15.7523 10.5154Z" fill="#D80027"/>
<path d="M11.9726 12.0168C12.0667 11.4306 12.4728 10.8506 13.0579 10.466C13.729 10.0251 14.5586 9.88396 15.3329 10.0793L15.3595 9.97398C14.5555 9.77144 13.6952 9.91874 12.9986 10.376C12.3797 10.7831 11.9665 11.3754 11.8662 11.9994L11.9726 12.0168Z" fill="#D80027"/>
<path d="M11.9197 12.0128C16.5372 10.9387 18.3141 16.6784 14.7675 18.9013C15.1961 18.0532 14.8187 17.3259 13.987 17.0027C13.0562 16.6406 12.739 15.1993 13.1359 14.5047C13.7906 13.3621 13.138 12.0558 11.9197 12.0128Z" fill="white"/>
<path d="M14.5249 15.1975L14.4963 14.7413L14.8328 15.0513L15.2584 14.8835L15.0661 15.2998L15.3576 15.6517L14.9034 15.5975L14.6579 15.9842L14.5679 15.5351L14.126 15.4205L14.5249 15.1975Z" fill="#D80027"/>
<path d="M11.9277 12.066C12.5138 11.975 13.191 12.1816 13.7383 12.6194C14.3654 13.1217 14.7561 13.8664 14.8093 14.6632L14.9177 14.6561C14.8625 13.8285 14.4574 13.0552 13.8068 12.5345C13.2278 12.0721 12.5384 11.8614 11.9124 11.9586L11.9277 12.066Z" fill="#D80027"/>
<path d="M11.9156 12.0148C14.3635 16.0748 9.4544 19.5385 6.24341 16.8522C7.18246 16.9975 7.75735 16.4144 7.8085 15.5234C7.86578 14.5261 9.13729 13.7793 9.92189 13.943C11.2108 14.21 12.2521 13.186 11.9156 12.0148Z" fill="white"/>
<path d="M9.69293 15.4767L10.1185 15.309L9.92616 15.7243L10.2177 16.0772L9.76352 16.023L9.51699 16.4086L9.42902 15.9606L8.98608 15.846L9.38503 15.622L9.35741 15.1658L9.69293 15.4767Z" fill="#D80027"/>
<path d="M11.8673 12.0396C12.1353 12.5695 12.1475 13.2763 11.901 13.932C11.6177 14.6828 11.0295 15.2854 10.2878 15.582L10.3277 15.6823C11.098 15.3733 11.7077 14.7493 12.0023 13.9699C12.2631 13.2763 12.2498 12.5551 11.9644 11.9905L11.8673 12.0396Z" fill="#D80027"/>
<path d="M11.9124 12.0121C8.80781 15.5944 3.99694 11.9957 5.55896 8.11264C5.71036 9.05067 6.4438 9.41688 7.30614 9.18979C8.27281 8.93508 9.37554 9.91505 9.46248 10.7109C9.60672 12.0192 10.9018 12.6933 11.9124 12.0121Z" fill="white"/>
<path d="M7.93402 10.9676L8.22453 11.3195L7.77035 11.2663L7.52485 11.6519L7.43483 11.2029L6.99292 11.0883L7.39186 10.8653L7.36322 10.4091L7.69977 10.719L8.12531 10.5523L7.93402 10.9676Z" fill="#D80027"/>
<path d="M11.8747 11.9727C11.4532 12.3911 10.7842 12.6213 10.0856 12.5895C9.28256 12.5517 8.52865 12.1783 8.01718 11.5656L7.93433 11.6351C8.46625 12.2724 9.24778 12.6591 10.0804 12.698C10.8211 12.7317 11.5023 12.4965 11.9514 12.0505L11.8747 11.9727Z" fill="#D80027"/>
</svg>
