<svg width="24" height="24" viewBox="0 0 24 24" fill="none" xmlns="http://www.w3.org/2000/svg">
<g clip-path="url(#clip0)">
<path d="M0.746391 7.82605C0.264047 9.12608 0 10.5321 0 11.9999C0 13.4678 0.264047 14.8739 0.746391 16.1738L12 17.2173L23.2536 16.1738C23.736 14.8739 24 13.4678 24 11.9999C24 10.5321 23.736 9.12608 23.2536 7.82605L12 6.78256L0.746391 7.82605Z" fill="white"/>
<path d="M12.0001 0C6.84061 0 2.44205 3.2565 0.746582 7.82611H23.2539C21.5582 3.2565 17.1598 0 12.0001 0Z" fill="#D80027"/>
<path d="M12.0001 24C17.1598 24 21.5582 20.7435 23.2538 16.1739H0.746582C2.44205 20.7435 6.84061 24 12.0001 24Z" fill="#6DA544"/>
</g>
<defs>
<clipPath id="clip0">
<rect width="24" height="24" fill="white"/>
</clipPath>
</defs>
</svg>
