<svg width="24" height="24" viewBox="0 0 24 24" fill="none" xmlns="http://www.w3.org/2000/svg">
<path d="M12 24C18.6274 24 24 18.6274 24 12C24 5.37258 18.6274 0 12 0C5.37258 0 0 5.37258 0 12C0 18.6274 5.37258 24 12 24Z" fill="white"/>
<path d="M16.5188 9.39128H13.5064L12.0004 6.78259L10.4943 9.39128H7.48193L8.98821 12L7.48193 14.6087H10.4943L12.0004 17.2173L13.5064 14.6087H16.5188L15.0125 12L16.5188 9.39128ZM13.8507 12L12.9256 13.6025H11.0752L10.15 12L11.0752 10.3974H12.9256L13.8507 12ZM12.0004 8.7948L12.3447 9.39123H11.6561L12.0004 8.7948ZM9.2247 10.3974H9.91339L9.56904 10.9938L9.2247 10.3974ZM9.2247 13.6025L9.56909 13.0061L9.91343 13.6025H9.2247ZM12.0004 15.2051L11.6561 14.6087H12.3447L12.0004 15.2051ZM14.776 13.6025H14.0873L14.4317 13.0061L14.776 13.6025ZM14.0873 10.3974H14.776L14.4317 10.9938L14.0873 10.3974Z" fill="#0052B4"/>
<path d="M19.4698 2.60864H4.53009C3.43495 3.48089 2.49576 4.54036 1.76123 5.7391H22.2387C21.5041 4.54041 20.5649 3.48089 19.4698 2.60864Z" fill="#0052B4"/>
<path d="M4.53009 21.3913H19.4698C20.5649 20.519 21.5041 19.4595 22.2386 18.2608H1.76123C2.49581 19.4595 3.435 20.519 4.53009 21.3913Z" fill="#0052B4"/>
</svg>
