<svg width="24" height="24" viewBox="0 0 24 24" fill="none" xmlns="http://www.w3.org/2000/svg">
<path d="M23.5 12C23.5 18.3513 18.3513 23.5 12 23.5C5.64873 23.5 0.5 18.3513 0.5 12C0.5 5.64873 5.64873 0.5 12 0.5C18.3513 0.5 23.5 5.64873 23.5 12Z" fill="white" stroke="#EFF2F5"/>
<path d="M15.6722 14.1394C15.1389 15.0632 12.1577 16.4212 10.1249 15.2476C8.0922 14.074 7.77767 10.8132 8.31101 9.88943C9.48923 7.84868 12.0922 7.14579 14.1249 8.3194C16.1577 9.493 16.8505 12.0987 15.6722 14.1394Z" fill="#D80027"/>
<path d="M15.6805 14.1249C14.5069 16.1577 11.9077 16.8541 9.87494 15.6805C7.8422 14.5069 7.14571 11.9077 8.31934 9.87494" fill="#0052B4"/>
<path d="M17.5338 14.5825L16.427 15.6893L17.1648 16.4271L18.2716 15.3204L17.5338 14.5825Z" fill="black"/>
<path d="M15.689 16.4272L14.5823 17.5339L15.3201 18.2718L16.4269 17.165L15.689 16.4272Z" fill="black"/>
<path d="M19.7476 16.7957L18.6409 17.9024L19.3787 18.6403L20.4855 17.5335L19.7476 16.7957Z" fill="black"/>
<path d="M17.9024 18.6407L16.7957 19.7474L17.5335 20.4853L18.6403 19.3785L17.9024 18.6407Z" fill="black"/>
<path d="M18.6407 15.6892L17.5339 16.796L18.2718 17.5338L19.3785 16.4271L18.6407 15.6892Z" fill="black"/>
<path d="M16.7962 17.5339L15.6895 18.6407L16.4273 19.3785L17.5341 18.2718L16.7962 17.5339Z" fill="black"/>
<path d="M15.6898 5.35913L18.6411 8.31049L19.379 7.57264L16.4276 4.62128L15.6898 5.35913Z" fill="black"/>
<path d="M14.5829 6.46618L15.6897 7.57294L16.4275 6.83512L15.3208 5.72837L14.5829 6.46618Z" fill="black"/>
<path d="M16.4272 8.31079L17.5339 9.41754L18.2717 8.67973L17.165 7.57297L16.4272 8.31079Z" fill="black"/>
<path d="M16.7956 4.25262L17.9023 5.35938L18.6402 4.62153L17.5334 3.51477L16.7956 4.25262Z" fill="black"/>
<path d="M18.6408 6.09741L19.7476 7.20416L20.4854 6.46632L19.3787 5.35956L18.6408 6.09741Z" fill="black"/>
<path d="M7.20405 19.7476L4.25269 16.7962L3.51484 17.5341L6.4662 20.4854L7.20405 19.7476Z" fill="black"/>
<path d="M8.31061 18.6404L7.20386 17.5336L6.46604 18.2714L7.5728 19.3782L8.31061 18.6404Z" fill="black"/>
<path d="M6.46613 16.796L5.35938 15.6893L4.62153 16.4271L5.72828 17.5339L6.46613 16.796Z" fill="black"/>
<path d="M9.41742 17.5337L6.46606 14.5823L5.72822 15.3202L8.67957 18.2715L9.41742 17.5337Z" fill="black"/>
<path d="M4.2525 7.2038L7.20386 4.25244L6.46601 3.51459L3.51465 6.46595L4.2525 7.2038Z" fill="black"/>
<path d="M5.35894 8.31043L8.3103 5.35907L7.57245 4.62122L4.6211 7.57258L5.35894 8.31043Z" fill="black"/>
<path d="M6.46637 9.41755L9.41772 6.46619L8.67991 5.72837L5.72855 8.67973L6.46637 9.41755Z" fill="black"/>
<ellipse cx="10.0971" cy="11.0457" rx="2.125" ry="2.125" transform="rotate(30 10.0971 11.0457)" fill="#D80027"/>
<circle cx="13.7778" cy="13.1707" r="2.125" transform="rotate(30 13.7778 13.1707)" fill="#0052B4"/>
</svg>
