<svg width="32" height="32" viewBox="0 0 32 32" fill="none" xmlns="http://www.w3.org/2000/svg">
<g clip-path="url(#clip0_1667_12245)">
<circle cx="16" cy="16" r="16" fill="#FF775F"/>
<path d="M15.9998 22C15.6332 22 15.3332 21.7 15.3332 21.3333V10.6667C15.3332 10.3 15.6332 10 15.9998 10C16.3665 10 16.6665 10.3 16.6665 10.6667V21.3333C16.6665 21.7 16.3665 22 15.9998 22Z" fill="#F8FAFD"/>
<path d="M19.3332 19.3333C18.9665 19.3333 18.6665 19.0333 18.6665 18.6667V13.3333C18.6665 12.9667 18.9665 12.6667 19.3332 12.6667C19.6998 12.6667 19.9998 12.9667 19.9998 13.3333V18.6667C19.9998 19.0333 19.6998 19.3333 19.3332 19.3333Z" fill="#F8FAFD"/>
<path d="M22.6665 17.3333C22.2998 17.3333 21.9998 17.0333 21.9998 16.6667V15.3333C21.9998 14.9667 22.2998 14.6667 22.6665 14.6667C23.0332 14.6667 23.3332 14.9667 23.3332 15.3333V16.6667C23.3332 17.0333 23.0332 17.3333 22.6665 17.3333Z" fill="#F8FAFD"/>
<path d="M12.6665 19.3333C12.2998 19.3333 11.9998 19.0333 11.9998 18.6667V13.3333C11.9998 12.9667 12.2998 12.6667 12.6665 12.6667C13.0332 12.6667 13.3332 12.9667 13.3332 13.3333V18.6667C13.3332 19.0333 13.0332 19.3333 12.6665 19.3333Z" fill="#F8FAFD"/>
<path d="M9.33317 17.3333C8.9665 17.3333 8.6665 17.0333 8.6665 16.6667V15.3333C8.6665 14.9667 8.9665 14.6667 9.33317 14.6667C9.69984 14.6667 9.99984 14.9667 9.99984 15.3333V16.6667C9.99984 17.0333 9.69984 17.3333 9.33317 17.3333Z" fill="#F8FAFD"/>
</g>
<defs>
<clipPath id="clip0_1667_12245">
<rect width="32" height="32" fill="white"/>
</clipPath>
</defs>
</svg>
