<svg width="32" height="32" viewBox="0 0 32 32" fill="none" xmlns="http://www.w3.org/2000/svg">
<circle cx="16" cy="16" r="16" fill="#152CAD"/>
<path fill-rule="evenodd" clip-rule="evenodd" d="M8.80005 11.5C8.80005 10.5058 9.60594 9.69995 10.6 9.69995H17.8C18.7942 9.69995 19.6 10.5058 19.6 11.5V20.5C19.6 21.4941 20.4059 22.3 21.4 22.3H10.6C9.60594 22.3 8.80005 21.4941 8.80005 20.5V11.5ZM11.5 12.4H16.9V16H11.5V12.4ZM16.9 17.8H11.5V19.6H16.9V17.8Z" fill="white"/>
<path d="M20.5 13.3H21.4C22.3942 13.3 23.2 14.1058 23.2 15.1V20.05C23.2 20.7955 22.5956 21.4 21.85 21.4C21.1045 21.4 20.5 20.7955 20.5 20.05V13.3Z" fill="white"/>
</svg>
