<svg width="32" height="32" viewBox="0 0 32 32" fill="none" xmlns="http://www.w3.org/2000/svg">
<circle cx="16" cy="16" r="16" fill="#FF775F"/>
<path d="M21.9662 21.1709L20.3719 22.7586L19.1819 21.5686L20.7729 19.9776C22.3106 18.4399 22.3106 15.9468 20.7729 14.4092C19.2352 12.8714 16.7422 12.8714 15.2044 14.4092L13.6131 16.0005L12.4199 14.8073L14.0112 13.2159C16.2079 11.0192 19.7695 11.0192 21.9662 13.2159C24.1629 15.4126 24.1629 18.9741 21.9662 21.1708V21.1709Z" fill="white" stroke="white" stroke-width="0.5"/>
<path d="M10.0342 10.8294L11.6285 9.2417L12.8185 10.4317L11.2275 12.0226C9.68979 13.5604 9.68979 16.0534 11.2275 17.5911C12.7653 19.1288 15.2583 19.1288 16.796 17.5911L18.3873 15.9998L19.5805 17.193L17.9892 18.7844C15.7925 20.9811 12.2309 20.9811 10.0342 18.7844C7.83754 16.5877 7.83754 13.0261 10.0342 10.8294V10.8294Z" fill="white" stroke="white" stroke-width="0.5"/>
</svg>
