<svg width="32" height="32" viewBox="0 0 32 32" fill="none" xmlns="http://www.w3.org/2000/svg">
<circle cx="16" cy="16" r="16" fill="#FF775F"/>
<path d="M10.3333 13.3333C9.59695 13.3333 9 12.7364 9 12C9 11.2636 9.59695 10.6667 10.3333 10.6667C11.0697 10.6667 11.6667 11.2636 11.6667 12C11.6667 12.7364 11.0697 13.3333 10.3333 13.3333Z" fill="white"/>
<path d="M10.3333 17.3333C9.59695 17.3333 9 16.7364 9 16C9 15.2636 9.59695 14.6667 10.3333 14.6667C11.0697 14.6667 11.6667 15.2636 11.6667 16C11.6667 16.7364 11.0697 17.3333 10.3333 17.3333Z" fill="white"/>
<path d="M10.3333 21.3333C9.59695 21.3333 9 20.7364 9 20C9 19.2636 9.59695 18.6667 10.3333 18.6667C11.0697 18.6667 11.6667 19.2636 11.6667 20C11.6667 20.7364 11.0697 21.3333 10.3333 21.3333Z" fill="white"/>
<path d="M14.2217 12H21.7772M14.2217 16H21.7772M14.2217 20H21.7772" stroke="white" stroke-width="1.5" stroke-linecap="round" stroke-linejoin="round"/>
</svg>
