<svg width="40" height="40" fill="none" xmlns="http://www.w3.org/2000/svg"><svg viewBox="0 0 32 32" xmlns="http://www.w3.org/2000/svg"><circle cx="16" cy="16" r="16" fill="#323546"/><path d="M11.667 10.667a1 1 0 0 0-1 1v2.666a1 1 0 0 0 1 1h2.666a1 1 0 0 0 1-1v-2.666a1 1 0 0 0-1-1h-2.666zm6 0a1 1 0 0 0-1 1v2.666a1 1 0 0 0 1 1h2.666a1 1 0 0 0 1-1v-2.666a1 1 0 0 0-1-1h-2.666zm-1 7a1 1 0 0 1 1-1h2.666a1 1 0 0 1 1 1v2.666a1 1 0 0 1-1 1h-2.666a1 1 0 0 1-1-1v-2.666zm-5-1a1 1 0 0 0-1 1v2.666a1 1 0 0 0 1 1h2.666a1 1 0 0 0 1-1v-2.666a1 1 0 0 0-1-1h-2.666z" fill="#A1A7BB"/></svg></svg>