<svg width="32" height="32" viewBox="0 0 32 32" fill="none" xmlns="http://www.w3.org/2000/svg">
<circle cx="16" cy="16" r="16" fill="#FF775F"/>
<path fill-rule="evenodd" clip-rule="evenodd" d="M11.9996 12.0001C11.9996 10.6746 13.0741 9.6001 14.3996 9.6001C15.0143 9.6001 15.575 9.83118 15.9996 10.2112C16.4242 9.83118 16.9849 9.6001 17.5996 9.6001C18.9251 9.6001 19.9996 10.6746 19.9996 12.0001C19.9996 12.2806 19.9515 12.5499 19.863 12.8001H20.7996C21.6833 12.8001 22.3996 13.5164 22.3996 14.4001C22.3996 15.2838 21.6833 16.0001 20.7996 16.0001H16.7996V15.2001C16.7996 14.7583 16.4414 14.4001 15.9996 14.4001C15.5578 14.4001 15.1996 14.7583 15.1996 15.2001V16.0001H11.1996C10.316 16.0001 9.59961 15.2838 9.59961 14.4001C9.59961 13.5164 10.316 12.8001 11.1996 12.8001H12.1362C12.0477 12.5499 11.9996 12.2806 11.9996 12.0001ZM15.1996 12.8001V12.0001C15.1996 11.5583 14.8414 11.2001 14.3996 11.2001C13.9578 11.2001 13.5996 11.5583 13.5996 12.0001C13.5996 12.4419 13.9578 12.8001 14.3996 12.8001H15.1996ZM17.5996 12.8001C18.0414 12.8001 18.3996 12.4419 18.3996 12.0001C18.3996 11.5583 18.0414 11.2001 17.5996 11.2001C17.1578 11.2001 16.7996 11.5583 16.7996 12.0001V12.8001H17.5996Z" fill="white"/>
<path d="M15.1996 16.8001H10.3996V20.8001C10.3996 21.6838 11.116 22.4001 11.9996 22.4001H15.1996V16.8001Z" fill="white"/>
<path d="M16.7996 22.4001H19.9996C20.8833 22.4001 21.5996 21.6838 21.5996 20.8001V16.8001H16.7996V22.4001Z" fill="white"/>
</svg>
