<svg width="32" height="32" viewBox="0 0 32 32" fill="none" xmlns="http://www.w3.org/2000/svg">
<path d="M16 0C11.7575 0 7.685 1.68675 4.6875 4.68625C1.6875 7.68575 0 11.7583 0 16C0 20.2417 1.6875 24.3142 4.6875 27.3137C7.685 30.3132 11.7575 32 16 32C20.2425 32 24.315 30.3132 27.3125 27.3137C30.3125 24.3142 32 20.2417 32 16C32 11.7583 30.3125 7.68575 27.3125 4.68625C24.315 1.68675 20.2425 0 16 0V0Z" fill="#55A9E8"/>
<path d="M9.44085 15.1659C13.1996 13.4726 15.7055 12.3561 16.9584 11.8167C20.5399 10.2765 21.2832 10.009 21.7687 10.0001C21.8754 9.99821 22.1131 10.0255 22.2682 10.1553C22.3971 10.2647 22.4334 10.4126 22.4516 10.5163C22.4677 10.6201 22.4899 10.8565 22.4717 11.0411C22.2784 13.1495 21.4384 18.2657 21.0113 20.6271C20.832 21.6263 20.4755 21.9613 20.131 21.9941C19.3817 22.0653 18.8136 21.4824 18.0884 20.9909C16.9544 20.2215 16.3138 19.7428 15.212 18.9921C13.9389 18.1246 14.7648 17.6478 15.4899 16.8686C15.6793 16.6647 18.9788 13.5615 19.0412 13.2801C19.0493 13.2449 19.0574 13.1136 18.9808 13.0445C18.9063 12.9751 18.7954 12.9988 18.7149 13.0176C18.6001 13.0442 16.7891 14.2834 13.2761 16.7349C12.7624 17.1003 12.2971 17.2784 11.8781 17.269C11.4189 17.2588 10.5326 16.9999 9.87392 16.7786C9.06818 16.5072 8.42556 16.3636 8.48196 15.9026C8.51017 15.6626 8.8305 15.4169 9.44085 15.1659V15.1659Z" fill="white"/>
</svg>