<svg width="32" height="32" viewBox="0 0 32 32" fill="none" xmlns="http://www.w3.org/2000/svg">
<circle cx="16" cy="16" r="16" fill="#EFF2F5"/>
<path d="M22 16C22 19.3137 19.3137 22 16 22M22 16C22 12.6863 19.3137 10 16 10M22 16H10M16 22C12.6863 22 10 19.3137 10 16M16 22C17.5008 20.357 18.3537 18.2248 18.4 16C18.3537 13.7752 17.5008 11.643 16 10M16 22C14.4992 20.357 13.6463 18.2248 13.6 16C13.6463 13.7752 14.4992 11.643 16 10M10 16C10 12.6863 12.6863 10 16 10" stroke="#808A9D" stroke-width="1.5" stroke-linecap="round" stroke-linejoin="round"/>
</svg>
