<svg width="32" height="32" viewBox="0 0 32 32" fill="none" xmlns="http://www.w3.org/2000/svg">
<circle cx="16" cy="16" r="16" fill="#2444D4"/>
<path d="M21.8844 10.6678C20.6159 10.7418 18.0946 11.0114 16.5381 11.9914C16.4307 12.059 16.3698 12.1792 16.3698 12.3049V20.9685C16.3698 21.2435 16.6622 21.4173 16.9087 21.2896C18.5101 20.4606 20.8261 20.2344 21.9712 20.1725C22.3622 20.1513 22.6661 19.8289 22.6661 19.4425V11.3987C22.6663 10.9771 22.3108 10.643 21.8844 10.6678ZM15.461 11.9914C13.9048 11.0114 11.3835 10.7421 10.115 10.6678C9.68856 10.643 9.33301 10.9771 9.33301 11.3987V19.4428C9.33301 19.8294 9.63694 20.1518 10.0279 20.1727C11.1735 20.2347 13.4906 20.4611 15.092 21.2906C15.3379 21.418 15.6293 21.2444 15.6293 20.9701V12.3006C15.6293 12.1747 15.5687 12.0592 15.461 11.9914Z" fill="white"/>
</svg>
