<svg width="32" height="32" viewBox="0 0 32 32" fill="none" xmlns="http://www.w3.org/2000/svg">
<circle cx="16" cy="16" r="16" fill="#3861FB"/>
<path fill-rule="evenodd" clip-rule="evenodd" d="M12.6663 9.33325C12.2061 9.33325 11.833 9.70635 11.833 10.1666V10.9999H10.9997C10.0792 10.9999 9.33301 11.7461 9.33301 12.6666V20.9999C9.33301 21.9204 10.0792 22.6666 10.9997 22.6666H20.9997C21.9201 22.6666 22.6663 21.9204 22.6663 20.9999V12.6666C22.6663 11.7461 21.9201 10.9999 20.9997 10.9999H20.1663V10.1666C20.1663 9.70635 19.7932 9.33325 19.333 9.33325C18.8728 9.33325 18.4997 9.70635 18.4997 10.1666V10.9999H13.4997V10.1666C13.4997 9.70635 13.1266 9.33325 12.6663 9.33325ZM12.6663 13.4999C12.2061 13.4999 11.833 13.873 11.833 14.3333C11.833 14.7935 12.2061 15.1666 12.6663 15.1666H19.333C19.7932 15.1666 20.1663 14.7935 20.1663 14.3333C20.1663 13.873 19.7932 13.4999 19.333 13.4999H12.6663Z" fill="white"/>
</svg>
