<svg width="32" height="32" viewBox="0 0 32 32" fill="none" xmlns="http://www.w3.org/2000/svg">
<circle cx="16" cy="16" r="16" fill="#EFF2F5"/>
<path d="M17.8865 15.638L14.656 14.7734C14.2171 14.6562 13.8615 14.3255 13.7921 13.901C13.6837 13.2396 14.231 12.6666 14.9171 12.6666H16.9671C17.4087 12.6666 17.8421 12.7969 18.2004 13.0338C18.3782 13.151 18.6171 13.1328 18.7698 12.9896L19.406 12.3932C19.5948 12.2161 19.5754 11.9193 19.3643 11.7656C18.6782 11.2682 17.8448 11 16.9671 11H16.8893V9.74998C16.8893 9.52081 16.6893 9.33331 16.4448 9.33331H15.556C15.3115 9.33331 15.1115 9.52081 15.1115 9.74998V11H15.0421C13.6754 11 12.4143 11.8281 12.0865 13.0729C11.7004 14.5364 12.6476 15.9687 14.1143 16.362L17.3448 17.2265C17.7837 17.3437 18.1393 17.6745 18.2087 18.0989C18.3171 18.7604 17.7698 19.3333 17.0837 19.3333H15.0337C14.5921 19.3333 14.1587 19.2031 13.8004 18.9661C13.6226 18.8489 13.3837 18.8672 13.231 19.0104L12.5948 19.6068C12.406 19.7838 12.4254 20.0807 12.6365 20.2344C13.3198 20.7318 14.1532 21 15.0337 21H15.1115V22.25C15.1115 22.4791 15.3115 22.6666 15.556 22.6666H16.4448C16.6893 22.6666 16.8893 22.4791 16.8893 22.25V21H16.9587C18.3254 21 19.5865 20.1719 19.9143 18.9271C20.3004 17.4635 19.3532 16.0312 17.8865 15.638V15.638Z" fill="#808A9D"/>
</svg>
