<svg width="32" height="32" viewBox="0 0 32 32" fill="none" xmlns="http://www.w3.org/2000/svg">
<circle cx="16" cy="16" r="16" fill="#EA3943"/>
<path fill-rule="evenodd" clip-rule="evenodd" d="M16.0001 22.4001C19.5347 22.4001 22.4001 19.5347 22.4001 16.0001C22.4001 12.4655 19.5347 9.6001 16.0001 9.6001C12.4655 9.6001 9.6001 12.4655 9.6001 16.0001C9.6001 19.5347 12.4655 22.4001 16.0001 22.4001ZM15.6439 13.7345C15.3984 13.5708 15.0827 13.5555 14.8226 13.6948C14.5625 13.834 14.4001 14.1051 14.4001 14.4001V17.6001C14.4001 17.8951 14.5625 18.1662 14.8226 18.3054C15.0827 18.4447 15.3984 18.4294 15.6439 18.2657L18.0439 16.6657C18.2664 16.5174 18.4001 16.2676 18.4001 16.0001C18.4001 15.7326 18.2664 15.4828 18.0439 15.3345L15.6439 13.7345Z" fill="white"/>
</svg>
