<svg width="32" height="32" viewBox="0 0 32 32" fill="none" xmlns="http://www.w3.org/2000/svg">
<circle cx="16" cy="16" r="16" fill="#3861FB"/>
<path fill-rule="evenodd" clip-rule="evenodd" d="M15.8333 10.8333V21.1667H16.1666V10.8333H15.8333ZM15.1666 9.33334H16.8333C17.3333 9.33334 17.6666 9.66668 17.6666 10.1667V21.8333C17.6666 22.3333 17.3333 22.6667 16.8333 22.6667H15.1666C14.6666 22.6667 14.3333 22.3333 14.3333 21.8333V10.1667C14.3333 9.66668 14.6666 9.33334 15.1666 9.33334ZM11.8333 17.6667H10.1666C9.66665 17.6667 9.33331 18 9.33331 18.5V21.8333C9.33331 22.3333 9.66665 22.6667 10.1666 22.6667H11.8333C12.3333 22.6667 12.6666 22.3333 12.6666 21.8333V18.5C12.6666 18 12.3333 17.6667 11.8333 17.6667ZM20.1666 13.5H21.8333C22.3333 13.5 22.6666 13.8333 22.6666 14.3333V21.8333C22.6666 22.3333 22.3333 22.6667 21.8333 22.6667H20.1666C19.6666 22.6667 19.3333 22.3333 19.3333 21.8333V14.3333C19.3333 13.8333 19.6666 13.5 20.1666 13.5Z" fill="white"/>
</svg>
