<svg width="24" height="24" viewBox="0 0 24 24" fill="none" xmlns="http://www.w3.org/2000/svg">
<path d="M12 24C18.6274 24 24 18.6274 24 12C24 5.37258 18.6274 0 12 0C5.37258 0 0 5.37258 0 12C0 18.6274 5.37258 24 12 24Z" fill="white"/>
<path d="M23.9999 12C23.9999 7.24242 21.2312 3.13167 17.2173 1.19067V22.8092C21.2312 20.8682 23.9999 16.7575 23.9999 12Z" fill="#D80027"/>
<path d="M0 12C0 16.7575 2.76867 20.8682 6.78262 22.8092V1.19067C2.76867 3.13167 0 7.24242 0 12Z" fill="#6DA544"/>
<path d="M8.86963 12C8.86963 13.7289 10.2712 15.1304 12.0001 15.1304C13.729 15.1304 15.1305 13.7289 15.1305 12V10.9565H8.86963V12Z" fill="#6DA544"/>
<path d="M16.1738 9.91305H13.0433C13.0433 9.33677 12.5761 8.86957 11.9999 8.86957C11.4236 8.86957 10.9564 9.33677 10.9564 9.91305H7.82593C7.82593 10.4894 8.32791 10.9565 8.90415 10.9565H8.86941C8.86941 11.5329 9.33657 12 9.9129 12C9.9129 12.5763 10.3801 13.0435 10.9564 13.0435H13.0433C13.6197 13.0435 14.0868 12.5763 14.0868 12C14.6632 12 15.1303 11.5329 15.1303 10.9565H15.0955C15.6719 10.9565 16.1738 10.4894 16.1738 9.91305Z" fill="#FF9811"/>
</svg>
