<svg width="24" height="24" viewBox="0 0 24 24" fill="none" xmlns="http://www.w3.org/2000/svg">
<path d="M12 24C18.6274 24 24 18.6274 24 12C24 5.37258 18.6274 0 12 0C5.37258 0 0 5.37258 0 12C0 18.6274 5.37258 24 12 24Z" fill="#F0F0F0"/>
<path d="M11.4783 11.9998H24C24 10.9167 23.8556 9.86754 23.5866 8.86938H11.4783V11.9998Z" fill="#D80027"/>
<path d="M11.4783 5.73907H22.2387C21.5041 4.54038 20.565 3.48086 19.4698 2.60861H11.4783V5.73907Z" fill="#D80027"/>
<path d="M11.9999 23.9999C14.8241 23.9999 17.4199 23.0237 19.4697 21.3912H4.53003C6.57992 23.0237 9.17572 23.9999 11.9999 23.9999Z" fill="#D80027"/>
<path d="M1.76122 18.2608H22.2387C22.8284 17.2986 23.2857 16.2467 23.5865 15.1304H0.41333C0.714127 16.2467 1.17149 17.2986 1.76122 18.2608Z" fill="#D80027"/>
<path d="M12 12C12 5.37262 12 4.59131 12 0C5.37262 0 0 5.37262 0 12H12Z" fill="#0052B4"/>
<path d="M7.97976 10.2717C6.34092 10.2717 5.01239 8.94314 5.01239 7.30435C5.01239 5.66555 6.34097 4.33697 7.97976 4.33697C8.49075 4.33697 8.97154 4.46621 9.39131 4.69364C8.73281 4.04972 7.83225 3.65222 6.83845 3.65222C4.82147 3.65222 3.18628 5.28736 3.18628 7.30439C3.18628 9.32142 4.82147 10.9566 6.83845 10.9566C7.83225 10.9566 8.73281 10.5591 9.39131 9.91514C8.97154 10.1425 8.49079 10.2717 7.97976 10.2717Z" fill="#FFDA44"/>
<path d="M8.81598 5.21744L9.34281 6.31909L10.5325 6.04422L9.99976 7.14292L10.9566 7.90169L9.76529 8.17023L9.76862 9.39138L8.81598 8.62741L7.86329 9.39138L7.86657 8.17023L6.67529 7.90169L7.63211 7.14292L7.09928 6.04422L8.28911 6.31909L8.81598 5.21744Z" fill="#FFDA44"/>
</svg>
