<svg width="24" height="24" viewBox="0 0 24 24" fill="none" xmlns="http://www.w3.org/2000/svg">
<path d="M24 12C24 18.6274 18.6274 24 12 24C5.37262 24 0 18.6274 0 12C0 12.0029 12 0.0013125 12 0C18.6274 0 24 5.37262 24 12Z" fill="#0052B4"/>
<path d="M11.968 11.9999H12.0001C12.0001 11.9891 12.0001 11.9786 12.0001 11.9678C11.9894 11.9785 11.9788 11.9892 11.968 11.9999Z" fill="white"/>
<path d="M12 6.26086C12 4.14938 12 2.76586 12 0H11.998C5.3715 0.001125 0 5.37323 0 12H6.26086V8.47448L9.78642 12H11.9679C11.9786 11.9893 11.9894 11.9786 12 11.9679C12 11.1594 12 10.4381 12 9.78647L8.47444 6.26086H12Z" fill="white"/>
<path d="M6.071 1.56531C4.19417 2.63401 2.63389 4.19429 1.56519 6.07112V12.0001H4.69564V4.69585V4.69576H12C12 3.70843 12 2.76784 12 1.56531H6.071V1.56531Z" fill="#D80027"/>
<path d="M11.9998 10.5245L7.73641 6.26105C7.73641 6.26105 6.26074 6.26114 6.26074 6.26105V6.26114L11.9998 12.0001H11.9998C11.9998 12.0001 11.9998 10.9826 11.9998 10.5245Z" fill="#D80027"/>
<path d="M20.7811 8.90436L21.0401 9.70151H21.8782L21.2002 10.1942L21.4592 10.9913L20.7811 10.4987L20.1029 10.9913L20.362 10.1942L19.6838 9.70151H20.522L20.7811 8.90436Z" fill="#D80027"/>
<path d="M17.7849 14.6436L18.1735 15.8393H19.4307L18.4135 16.5783L18.8021 17.774L17.7849 17.035L16.7678 17.774L17.1563 16.5783L16.1392 15.8393H17.3964L17.7849 14.6436Z" fill="#D80027"/>
<path d="M17.8978 5.2522L18.2216 6.24871H19.2693L18.4216 6.86442L18.7454 7.86088L17.8978 7.24499L17.0502 7.86088L17.374 6.86442L16.5264 6.24871H17.574L17.8978 5.2522Z" fill="#D80027"/>
<path d="M15.0152 8.86963L15.4037 10.0654H16.6609L15.6438 10.8043L16.0324 12.0001L15.0152 11.2611L13.998 12.0001L14.3866 10.8043L13.3694 10.0654H14.6266L15.0152 8.86963Z" fill="#D80027"/>
</svg>
