<svg width="24" height="24" viewBox="0 0 24 24" fill="none" xmlns="http://www.w3.org/2000/svg">
<g clip-path="url(#clip0)">
<path d="M12 24C18.6274 24 24 18.6274 24 12C24 5.37258 18.6274 0 12 0C5.37258 0 0 5.37258 0 12C0 18.6274 5.37258 24 12 24Z" fill="white"/>
<path d="M12 0V12L3.51465 20.4853C5.68623 22.6568 8.68623 24 12 24C18.6273 24 24 18.6274 24 12C24 5.37262 12 0 12 0Z" fill="#D80027"/>
<path d="M12 0C8.68623 0 5.68623 1.34316 3.51465 3.51469C6.45887 6.45891 7.50404 7.50412 12 12H24C24 5.37262 18.6273 0 12 0Z" fill="#0052B4"/>
<path d="M8.21674 12L6.75124 11.3107L7.53166 9.89135L5.94025 10.1958L5.7386 8.58813L4.6301 9.77051L3.52164 8.58813L3.31994 10.1958L1.72858 9.89131L2.509 11.3107L1.04346 12L2.509 12.6894L1.72858 14.1087L3.32008 13.8043L3.5216 15.4119L4.6301 14.2295L5.7386 15.4119L5.94025 13.8043L7.53157 14.1087L6.75119 12.6894L8.21674 12Z" fill="#FFDA44"/>
<path d="M3.20033 4.69568L3.68802 5.37738L4.487 5.1243L3.98929 5.79874L4.47697 6.48044L3.68169 6.21555L3.18402 6.88994L3.19025 6.05182L2.39502 5.78688L3.19414 5.5338L3.20033 4.69568Z" fill="#FFDA44"/>
<path d="M3.20033 17.1101L3.68802 17.7918L4.487 17.5387L3.98929 18.2132L4.47697 18.8949L3.68169 18.63L3.18402 19.3044L3.19025 18.4662L2.39502 18.2013L3.19414 17.9482L3.20033 17.1101Z" fill="#FFDA44"/>
<path d="M10.1563 10.903L9.66866 11.5847L8.86963 11.3315L9.36735 12.006L8.87966 12.6877L9.67494 12.4228L10.1727 13.0972L10.1664 12.2591L10.9616 11.9942L10.1625 11.7411L10.1563 10.903Z" fill="#FFDA44"/>
</g>
<defs>
<clipPath id="clip0">
<rect width="24" height="24" fill="white"/>
</clipPath>
</defs>
</svg>
