<svg width="24" height="24" viewBox="0 0 24 24" fill="none" xmlns="http://www.w3.org/2000/svg">
<g clip-path="url(#clip0)">
<path d="M12 24C18.6274 24 24 18.6274 24 12C24 5.37258 18.6274 0 12 0C5.37258 0 0 5.37258 0 12C0 18.6274 5.37258 24 12 24Z" fill="white"/>
<path d="M23.2536 16.1738C23.736 14.8738 24 13.4678 24 11.9999C24 10.5321 23.736 9.12603 23.2536 7.82605H0.746391C0.264047 9.12603 0 10.5321 0 11.9999C0 13.4678 0.264047 14.8738 0.746391 16.1738L12 17.2173L23.2536 16.1738Z" fill="#0052B4"/>
<path d="M11.9999 24.0001C17.1595 24.0001 21.558 20.7436 23.2536 16.174H0.746338C2.44185 20.7436 6.84037 24.0001 11.9999 24.0001Z" fill="#D80027"/>
</g>
<defs>
<clipPath id="clip0">
<rect width="24" height="24" fill="white"/>
</clipPath>
</defs>
</svg>
