<svg width="24" height="24" viewBox="0 0 24 24" fill="none" xmlns="http://www.w3.org/2000/svg">
<g clip-path="url(#clip0)">
<path d="M12 24C18.6274 24 24 18.6274 24 12C24 5.37258 18.6274 0 12 0C5.37258 0 0 5.37258 0 12C0 18.6274 5.37258 24 12 24Z" fill="#FFDA44"/>
<path d="M9.39092 10.4348H23.898C23.131 4.54697 18.0964 0 11.9996 0C11.1036 0 10.2308 0.0990469 9.39087 0.285234V10.4348H9.39092Z" fill="#0052B4"/>
<path d="M6.2606 10.4348V1.45911C2.96557 3.25695 0.606771 6.55465 0.101318 10.4348H6.2606V10.4348Z" fill="#0052B4"/>
<path d="M6.26055 13.5653H0.101318C0.606771 17.4455 2.96557 20.7432 6.2606 22.541L6.26055 13.5653Z" fill="#0052B4"/>
<path d="M9.39087 13.5654V23.7149C10.2308 23.9011 11.1036 24.0001 11.9996 24.0001C18.0964 24.0001 23.131 19.4531 23.898 13.5653H9.39087V13.5654Z" fill="#0052B4"/>
</g>
<defs>
<clipPath id="clip0">
<rect width="24" height="24" fill="white"/>
</clipPath>
</defs>
</svg>
