<svg width="24" height="24" viewBox="0 0 24 24" fill="none" xmlns="http://www.w3.org/2000/svg">
<path d="M12 24C18.6274 24 24 18.6274 24 12C24 5.37258 18.6274 0 12 0C5.37258 0 0 5.37258 0 12C0 18.6274 5.37258 24 12 24Z" fill="white"/>
<path d="M0 12C0 5.37263 5.37262 0 12 0C18.6274 0 24 5.37263 24 12" fill="#D80027"/>
<path d="M7.30451 6.26077C7.30451 4.51242 8.53324 3.05189 10.1741 2.69353C9.92187 2.6385 9.66026 2.60864 9.39143 2.60864C7.37435 2.60864 5.73926 4.24374 5.73926 6.26081C5.73926 8.27789 7.37435 9.91299 9.39143 9.91299C9.66016 9.91299 9.92182 9.88313 10.1741 9.82805C8.53324 9.46969 7.30451 8.00916 7.30451 6.26077Z" fill="white"/>
<path d="M12.0002 2.86938L12.2593 3.66649H13.0974L12.4193 4.1592L12.6783 4.95631L12.0002 4.4637L11.3221 4.95631L11.5812 4.1592L10.9031 3.66649H11.7412L12.0002 2.86938Z" fill="white"/>
<path d="M9.96688 4.43469L10.2259 5.23185H11.064L10.3859 5.7245L10.645 6.52161L9.96688 6.029L9.28869 6.52161L9.54777 5.7245L8.86963 5.23185H9.7078L9.96688 4.43469Z" fill="white"/>
<path d="M14.0337 4.43469L14.2928 5.23185H15.1309L14.4527 5.7245L14.7118 6.52161L14.0337 6.029L13.3556 6.52161L13.6146 5.7245L12.9365 5.23185H13.7746L14.0337 4.43469Z" fill="white"/>
<path d="M13.2507 6.78259L13.5098 7.57975H14.3479L13.6698 8.0724L13.9288 8.86951L13.2507 8.3769L12.5726 8.86951L12.8317 8.0724L12.1536 7.57975H12.9916L13.2507 6.78259Z" fill="white"/>
<path d="M10.7495 6.78259L11.0085 7.57975H11.8468L11.1686 8.0724L11.4277 8.86951L10.7495 8.3769L10.0714 8.86951L10.3304 8.0724L9.65234 7.57975H10.4905L10.7495 6.78259Z" fill="white"/>
</svg>
