<svg width="24" height="24" viewBox="0 0 24 24" fill="none" xmlns="http://www.w3.org/2000/svg">
<path d="M12 24C18.6274 24 24 18.6274 24 12C24 5.37258 18.6274 0 12 0C5.37258 0 0 5.37258 0 12C0 18.6274 5.37258 24 12 24Z" fill="white"/>
<path d="M23.2536 7.82605H0.746391C0.264 9.12603 0 10.5321 0 11.9999C0 13.4678 0.264 14.8738 0.746391 16.1738H23.2537C23.736 14.8738 24 13.4678 24 11.9999C24 10.5321 23.736 9.12603 23.2536 7.82605Z" fill="#0052B4"/>
<path d="M12.0004 0C8.36334 0 5.10445 1.61831 2.90381 4.17389H21.097C18.8964 1.61831 15.6375 0 12.0004 0Z" fill="#D80027"/>
<path d="M21.097 19.826H2.90381C5.10445 22.3816 8.36334 23.9999 12.0004 23.9999C15.6375 23.9999 18.8964 22.3816 21.097 19.826Z" fill="#D80027"/>
</svg>
