<svg width="24" height="24" viewBox="0 0 24 24" fill="none" xmlns="http://www.w3.org/2000/svg">
<path d="M12 24C18.6274 24 24 18.6274 24 12C24 5.37258 18.6274 0 12 0C5.37258 0 0 5.37258 0 12C0 18.6274 5.37258 24 12 24Z" fill="#D80027"/>
<path d="M16.0878 8.88416L17.4858 10.8106L19.7498 10.0765L18.3496 12.0013L19.7474 13.9277L17.4842 13.1908L16.0841 15.1156L16.0856 12.7355L13.8223 11.9986L16.0864 11.2645L16.0878 8.88416Z" fill="white"/>
<path d="M12.2727 16.8152C9.61338 16.8152 7.45751 14.6593 7.45751 12C7.45751 9.34069 9.61338 7.18482 12.2727 7.18482C13.1018 7.18482 13.882 7.39454 14.5631 7.76359C13.4946 6.71853 12.0332 6.07361 10.4207 6.07361C7.14763 6.07361 4.49438 8.72692 4.49438 11.9999C4.49438 15.2729 7.14769 17.9262 10.4207 17.9262C12.0333 17.9262 13.4946 17.2812 14.5631 16.2363C13.882 16.6054 13.1018 16.8152 12.2727 16.8152Z" fill="white"/>
</svg>
