<svg width="24" height="24" viewBox="0 0 24 24" fill="none" xmlns="http://www.w3.org/2000/svg">
<path d="M24 12C24 18.6274 18.6274 24 12 24C5.37262 24 0 18.6274 0 12C4.12172 7.87828 7.61737 4.38263 12 0C18.6274 0 24 5.37262 24 12Z" fill="#D80027"/>
<path d="M12 12C12 5.37262 12 4.59131 12 0C5.37262 0 0 5.37262 0 12H12Z" fill="#0052B4"/>
<path d="M10.435 7.02281L8.96945 7.71224L9.74983 9.13157L8.15847 8.82707L7.95677 10.4347L6.84836 9.25237L5.73986 10.4347L5.53825 8.82707L3.94684 9.13148L4.72722 7.71215L3.26172 7.02281L4.72727 6.33351L3.94684 4.91413L5.5382 5.21859L5.73991 3.61096L6.84836 4.79334L7.95681 3.61096L8.15847 5.21859L9.74987 4.91413L8.96945 6.33356L10.435 7.02281Z" fill="white"/>
<path d="M6.84824 9.25628C8.08189 9.25628 9.08197 8.25621 9.08197 7.02255C9.08197 5.78889 8.08189 4.78882 6.84824 4.78882C5.61458 4.78882 4.6145 5.78889 4.6145 7.02255C4.6145 8.25621 5.61458 9.25628 6.84824 9.25628Z" fill="#0052B4"/>
<path d="M6.84816 8.21314C6.19186 8.21314 5.65796 7.67919 5.65796 7.02289C5.65796 6.36659 6.19191 5.83264 6.84816 5.83264C7.50446 5.83264 8.03841 6.36659 8.03841 7.02289C8.03837 7.67919 7.50437 8.21314 6.84816 8.21314Z" fill="white"/>
</svg>
