<svg width="24" height="24" viewBox="0 0 24 24" fill="none" xmlns="http://www.w3.org/2000/svg">
<g clip-path="url(#clip0)">
<path d="M12 24C18.6274 24 24 18.6274 24 12C24 5.37258 18.6274 0 12 0C5.37258 0 0 5.37258 0 12C0 18.6274 5.37258 24 12 24Z" fill="white"/>
<path d="M3.51447 20.4853C-1.17181 15.7989 -1.17181 8.20098 3.51447 3.51465C3.51414 3.51516 10.4346 12 10.4346 12L3.51447 20.4853Z" fill="black"/>
<path d="M10.4349 12.0001L1.59162 6.02417C1.31745 6.50075 1.07567 6.99819 0.86792 7.51306L5.3449 12.0002L0.868061 16.4875C1.07562 17.002 1.31717 17.4991 1.59115 17.9754L10.4349 12.0001Z" fill="#FFDA44"/>
<path d="M23.8984 10.4347H10.4345L3.51458 3.51477C2.76889 4.26046 2.12103 5.10379 1.59153 6.02399L7.55586 11.9999L1.59106 17.9751C2.12056 18.8955 2.7687 19.7391 3.51458 20.485L10.4345 13.5651H23.8984C23.9651 13.0528 24 12.5304 24 11.9999C24 11.4694 23.9651 10.947 23.8984 10.4347Z" fill="#6DA544"/>
<path d="M4.69385 21.5191C6.71739 23.0746 9.25038 23.9999 11.9999 23.9999C17.5442 23.9999 22.2095 20.2396 23.5865 15.1304H11.0827L4.69385 21.5191Z" fill="#0052B4"/>
<path d="M23.5865 8.86955C22.2095 3.76036 17.5442 0 11.9999 0C9.25038 0 6.71739 0.925359 4.69385 2.48077L11.0826 8.86955H23.5865Z" fill="#D80027"/>
</g>
<defs>
<clipPath id="clip0">
<rect width="24" height="24" fill="white"/>
</clipPath>
</defs>
</svg>
